<?xml version="1.0" encoding="utf-8" ?>
<svg xmlns="http://www.w3.org/2000/svg" xmlns:xlink="http://www.w3.org/1999/xlink" width="322" height="261">
	<path fill="#2BB5F5" d="M84.6368 236.562C83.6466 233.926 78.8332 235.853 77.0023 233.805C76.594 233.348 76.5044 232.832 76.5568 232.241C76.6295 231.419 76.9172 230.572 77.5911 230.051C80.3821 227.893 85.2439 231.127 87.8973 232.196C88.7349 232.533 89.7045 232.666 90.5924 232.817C90.5394 232.839 90.4872 232.863 90.4334 232.883C89.243 233.324 87.7457 232.804 86.653 232.27C85.0535 231.487 82.1869 229.245 80.4146 229.938C79.0301 230.479 78.6942 232.623 77.9966 233.799C78.154 234.027 78.1392 234.13 78.4243 234.182C80.2708 234.516 83.078 234.11 84.6781 235.112L84.7406 235.95L84.6368 236.562Z"/>
	<path fill="#1E1554" d="M299.583 96.3739C300.293 96.3439 301.1 96.5294 301.735 96.8494C302.705 97.339 303.43 98.197 303.741 99.2417C303.996 100.102 303.923 101.024 303.452 101.801C302.877 102.75 302.097 103.08 301.057 103.322C300.716 103.483 300.387 103.4 300.032 103.317C299.312 103.149 298.77 102.551 298.4 101.942C297.844 101.025 297.6 99.6354 297.864 98.592C298.099 97.6626 298.76 96.8418 299.583 96.3739Z"/>
	<path fill="#045CB9" d="M304.359 184.374C304.577 184.344 304.794 184.326 305.014 184.321C306.305 184.292 307.369 184.811 308.294 185.695C309.181 186.543 310.072 187.777 310.049 189.064C310.038 189.698 309.799 190.257 309.325 190.679C308.667 191.265 307.505 191.078 306.687 191.052C305.935 191.03 305.19 190.991 304.448 190.852C303.448 190.665 302.586 190.244 302.036 189.346C301.681 188.765 301.585 188.134 301.746 187.471C302.089 186.054 303.173 185.107 304.359 184.374Z"/>
	<path fill="#18348D" d="M50.7883 105.496C51.2884 105.488 51.8151 105.503 52.3095 105.581C53.204 105.724 54.2996 106.297 54.8042 107.074C55.249 107.759 55.3577 108.53 55.2092 109.323C54.8538 111.22 53.4659 112.315 51.9393 113.322C51.3456 113.468 50.7434 113.452 50.1493 113.313C49.348 113.126 48.6102 112.656 48.175 111.948C47.5839 110.986 47.6281 109.771 47.9114 108.716C48.3429 107.111 49.3894 106.275 50.7883 105.496Z"/>
	<path fill="#087CB6" d="M16.7196 198.753C16.8412 198.758 16.9463 198.76 17.0652 198.775C18.392 198.944 19.9781 199.437 20.8277 200.541C21.3767 201.254 21.5498 202.146 21.4016 203.026C21.0695 204.998 19.5045 206.305 17.9625 207.4C17.1735 207.508 16.504 207.354 15.8117 206.976C14.6071 206.319 13.7572 205.318 13.4021 203.982C13.1032 202.858 13.1934 201.588 13.7904 200.572C14.4851 199.39 15.4571 199.1 16.7196 198.753Z"/>
	<path fill="#2798ED" d="M307.021 194.874C308.172 194.725 309.352 195.024 310.276 195.736C311.117 196.384 311.588 197.343 311.689 198.391C311.818 199.734 311.335 201.17 310.459 202.192C309.459 203.359 308.523 203.88 306.999 203.988C306.502 203.885 305.979 203.784 305.505 203.599C304.436 203.184 303.556 202.101 303.105 201.077C302.661 200.07 302.653 198.925 303.075 197.911C303.811 196.144 305.358 195.531 307.021 194.874Z"/>
	<path fill="#18348D" d="M35.6648 96.6731C36.4773 96.8765 37.2669 97.0838 37.9713 97.5548C39.9835 98.9004 41.0113 101.053 41.4806 103.359C40.556 105.488 39.0639 107.455 37.1265 108.755C36.6286 108.803 36.0551 108.876 35.5652 108.759C34.3358 108.463 32.8135 107.287 32.1247 106.229C31.2874 104.944 30.9003 103.308 31.2585 101.8C31.8104 99.4772 33.7492 97.8977 35.6648 96.6731Z"/>
	<path fill="#1E1554" d="M107.857 23.8859C110.183 24.6646 110.071 26.1799 111.536 27.762C112.631 28.9453 114.294 28.7291 115.763 28.8049C116.7 28.8532 117.392 28.9351 118.056 29.6713C118.349 30.4122 118.304 30.8285 118.154 31.587C116.969 33.2667 112.93 32.7776 111.024 33.6616C110.129 34.0764 109.933 34.821 109.62 35.6865C109.375 36.3803 109.066 37.1707 108.681 37.7941C108.344 38.3391 107.977 38.3768 107.402 38.4799C105.597 37.7474 104.935 34.5946 104.126 32.962C103.655 32.0113 103.004 31.1087 102.406 30.2324C103.969 28.1639 105.709 25.3228 107.857 23.8859Z"/>
	<path fill="#BDDFF4" d="M241.105 200.328C241.44 198.643 243.503 196.179 244.779 195.119L245.162 195.241C245.766 199.73 246.492 207.222 243.637 210.955C242.971 211.824 242.127 212.567 241.318 213.301L238.065 216.699C235.557 215.655 235.332 212.415 234.224 210.286L234.131 210.11C235.057 209.2 235.802 208.09 236.578 207.052C237.748 204.798 238.875 202.567 239.494 200.092L241.105 200.328Z"/>
	<path fill="#57D7F5" d="M239.494 200.092L241.105 200.328C240.306 203.055 238.888 205.306 239.022 208.257C238.997 208.239 238.972 208.221 238.948 208.202C238.153 207.588 237.554 207.303 236.578 207.052C237.748 204.798 238.875 202.567 239.494 200.092Z"/>
	<path fill="#76E8F6" d="M236.578 207.052C237.554 207.303 238.153 207.588 238.948 208.202C238.972 208.221 238.997 208.239 239.022 208.257C239.549 209.547 240.331 212.409 241.318 213.301L238.065 216.699C235.557 215.655 235.332 212.415 234.224 210.286L234.131 210.11C235.057 209.2 235.802 208.09 236.578 207.052Z"/>
	<path fill="#1E1554" d="M91.3038 41.8876C91.8971 41.9905 92.6647 42.0596 93.2068 42.3175C94.9087 43.1271 95.8459 50.0343 97.1445 52.2092C98.5405 54.5472 103.746 55.4904 104.416 57.7554C103.721 59.7047 99.0025 61.0034 97.4342 62.6132C95.2105 64.8957 95.5889 68.239 93.8122 70.5876C93.1919 70.5881 92.296 70.6658 91.736 70.3852C89.9777 69.5041 90.4509 65.7692 89.8344 64.0843C88.9414 61.6442 84.1934 61.3004 82.0509 60.3045C81.3213 59.9653 80.8563 59.6062 80.5606 58.8274C80.5312 58.0044 80.8162 57.4946 81.4005 56.9437C83.0074 55.4284 85.3477 54.7217 87.0414 53.282C89.8294 50.9119 89.7674 45.2061 91.3038 41.8876Z"/>
	<path fill="#1E1554" d="M282.726 61.6203L283.626 61.4682C284.072 61.6333 284.223 61.6788 284.527 62.0715C285.944 63.8994 287.903 77.134 287.544 79.6464C289.798 80.7096 297.745 82.7747 298.852 84.4089C299.211 87.6996 291.568 89.8033 289.31 91.5706C286.624 93.6736 287.503 97.9884 285.88 100.596C285.413 101.345 285.042 101.36 284.255 101.555C280.677 100.661 282.113 93.2286 278.597 90.9845C275.869 89.5067 271.19 90.2114 269.254 87.177C268.751 86.3874 268.762 85.6035 268.946 84.7189C270.743 82.195 276.874 82.8838 279.664 81.4098L279.858 81.3054C279.943 81.1974 279.949 81.1962 280.03 81.0622C280.672 79.9949 280.297 76.6806 280.362 75.2683C280.516 71.9653 280.766 68.5586 281.526 65.3367C281.816 64.1072 282.482 62.982 282.705 61.7528C282.713 61.7088 282.719 61.6645 282.726 61.6203Z"/>
	<path fill="#1E1554" d="M276.584 188.123C280.554 187.737 284.072 188.586 287.285 191.016C291.107 193.908 294.001 198.52 294.626 203.302C295.169 207.46 293.85 211.312 291.313 214.568C288.702 217.918 285.048 220.234 280.802 220.773C280.671 220.853 280.653 220.874 280.481 220.923C277.561 221.749 273.579 220.35 271.149 218.759C267.615 216.444 264.56 212.55 263.72 208.364C262.86 204.079 263.422 199.462 265.884 195.799C268.443 191.992 272.025 189.034 276.584 188.123Z"/>
	<path fill="#009D52" d="M270.504 204.569C270.485 204.141 270.463 203.67 270.588 203.255C271.248 201.07 274.684 197.563 276.649 196.454C277.203 196.142 277.899 195.807 278.538 195.98C279.853 196.228 284.911 202.148 285.855 203.498C286.231 204.036 286.481 204.384 286.354 205.078C285.944 207.326 283.126 211.825 281.175 213.031C280.573 213.403 279.852 213.35 279.192 213.18C276.809 212.565 273.029 210.008 271.837 207.833C271.275 206.807 271.083 205.564 270.504 204.569Z"/>
	<path fill="#FCFCFC" d="M270.504 204.569C270.485 204.141 270.463 203.67 270.588 203.255C271.248 201.07 274.684 197.563 276.649 196.454C277.203 196.142 277.899 195.807 278.538 195.98C279.045 197.469 279.192 202.696 278.373 204.099C278.339 204.158 278.292 204.21 278.251 204.265C275.682 204.42 273.078 204.641 270.504 204.569Z"/>
	<path fill="#1E1554" d="M61.7391 211.336C59.9874 214.483 58.2236 217.257 55.1447 219.255C51.1978 221.817 45.9556 222.822 41.3526 221.838C37.3267 220.978 33.789 218.525 31.5539 215.067C28.9947 211.107 27.9296 205.766 28.925 201.146C29.8711 196.755 32.6809 192.697 36.4582 190.27C41.4859 187.039 47.2506 186.99 52.9031 188.217C53.0118 188.513 53.1251 188.581 53.379 188.74C55.2261 189.892 56.6877 191.363 58.1982 192.916C61.3891 196.935 61.8026 199.324 62.9695 204.074C62.8649 206.649 62.5639 208.891 61.7391 211.336Z"/>
	<path fill="#FCFCFC" d="M36.1045 204.713C36.1064 204.671 36.1076 204.628 36.1101 204.585C36.2781 201.776 37.7971 199.117 39.9134 197.304C40.9996 196.374 42.3046 195.501 43.8039 195.652C44.8089 195.753 45.4042 196.119 46.0376 196.874C46.0318 196.919 46.0255 196.964 46.0202 197.008C45.7893 198.943 46.1062 201.759 44.3557 203.141C43.1502 204.092 41.4939 204.709 39.9851 204.92C38.7005 205.036 37.3845 204.837 36.1045 204.713Z"/>
	<path fill="#009D52" d="M46.0376 196.874C46.0943 196.886 46.1508 196.899 46.2077 196.91C46.7026 197.006 47.2535 196.888 47.7607 196.919C49.528 197.024 50.9302 198.124 51.9226 199.52C52.954 200.97 53.5841 202.656 54.1682 204.322C53.939 204.5 53.8007 204.696 53.5046 204.683C50.8476 204.571 45.9317 208.608 42.6476 208.555L42.8911 208.236L42.8545 208.236C42.6706 207.529 42.5553 206.409 42.1054 205.846C40.9969 205.734 39.8936 205.634 38.7809 205.574L38.6969 205.372L39.9851 204.92C41.4939 204.709 43.1502 204.092 44.3557 203.141C46.1062 201.759 45.7893 198.943 46.0202 197.008C46.0255 196.964 46.0318 196.919 46.0376 196.874Z"/>
	<path fill="#009D52" d="M54.1682 204.322C54.6807 205.921 54.3917 207.787 53.611 209.265C52.4378 211.486 50.0302 213.119 47.6707 213.835C45.4313 214.515 43.1007 214.379 41.0407 213.226C38.5363 211.824 37.2015 209.507 36.4775 206.809C36.2909 206.113 36.132 205.436 36.1045 204.713C37.3845 204.837 38.7005 205.036 39.9851 204.92L38.6969 205.372L38.7809 205.574C39.8936 205.634 40.9969 205.734 42.1054 205.846C42.5553 206.409 42.6706 207.529 42.8545 208.236L42.8911 208.236L42.6476 208.555C45.9317 208.608 50.8476 204.571 53.5046 204.683C53.8007 204.696 53.939 204.5 54.1682 204.322Z"/>
	<path fill="#1E1554" d="M38.3729 41.5763C44.4034 40.892 50.0066 42.0144 55.057 45.4341C59.5929 48.5055 63.1435 53.4153 64.1584 58.8475C65.3575 65.2654 63.7846 71.4247 60.1067 76.755C56.8531 81.4702 51.5943 84.6445 45.9878 85.685C40.0399 86.3252 34.2348 85.753 29.2888 82.1326C24.4173 78.5668 20.4937 73.1826 19.5871 67.1216C18.7274 61.3741 20.2045 55.2969 23.6728 50.6226C27.0796 46.0311 32.6947 42.4215 38.3729 41.5763Z"/>
	<path fill="#009D52" d="M55.7594 60.9554C56.4802 64.811 56.2655 68.014 54.0182 71.3454C51.7856 74.6548 48.2266 76.6955 44.3488 77.4065C40.5703 78.0993 36.6195 77.3901 33.4283 75.1999C32.0033 74.2219 30.5886 72.8425 29.7114 71.3428C30.5096 70.0128 31.8872 70.4248 33.2187 70.4972C39.5115 70.8396 41.95 70.3753 46.9757 66.4568C48.2849 65.436 49.5099 64.4682 51.0673 63.8338C52.1938 63.375 55.2532 63.5706 55.7248 63.2455L55.7594 60.9554Z"/>
	<path fill="#009D52" d="M41.9377 49.6417C44.08 49.076 46.7608 50.2287 48.6157 51.3102C51.3622 52.9116 54.6876 55.9113 55.4917 59.0966C55.6426 59.6945 55.7673 60.3369 55.7594 60.9554L55.7248 63.2455C55.2532 63.5706 52.1938 63.375 51.0673 63.8338C49.5099 64.4682 48.2849 65.436 46.9757 66.4568C41.95 70.3753 39.5115 70.8396 33.2187 70.4972C31.8872 70.4248 30.5096 70.0128 29.7114 71.3428C28.2214 68.8451 27.1728 65.912 27.3985 62.9739C27.5294 59.7861 28.773 56.4799 30.9425 54.1232C33.8103 51.0081 37.8318 49.8032 41.9377 49.6417Z"/>
	<path fill="#FCFCFC" d="M27.3985 62.9739C27.5294 59.7861 28.773 56.4799 30.9425 54.1232C33.8103 51.0081 37.8318 49.8032 41.9377 49.6417C41.2475 52.8693 40.8555 58.9334 37.9399 60.841C35.3874 62.5109 30.8646 61.7858 27.3985 62.9739Z"/>
	<path fill="#1E1554" d="M31.4775 116.687C35.1809 119.412 39.7363 124.765 43.256 128.187C46.251 131.099 49.2531 134.011 52.3039 136.865C54.8608 139.256 57.796 141.527 59.8312 144.392C57.9738 147.055 32.5946 172.741 31.3407 173.239C29.184 171.547 27.6058 169.169 25.6148 167.285C22.9027 164.719 20.0147 162.335 17.2829 159.785C14.4133 157.108 11.7746 154.161 9.09161 151.299C6.82681 148.883 4.442 146.511 2.38648 143.913C3.66961 142.05 5.47381 140.504 7.00805 138.842C9.66436 135.966 12.2233 133.007 15.0607 130.304C18.1488 127.361 21.556 124.877 24.8711 122.206C27.1065 120.405 29.202 118.439 31.4775 116.687Z"/>
	<path fill="#087CB6" d="M34.1316 146.101C38.2497 145.641 42.4717 145.394 46.5435 144.635C44.9317 147.739 35.8543 158.199 33.0092 159.563C33.8676 155.27 33.9278 150.909 33.9415 146.541L34.1316 146.101Z"/>
	<path fill="#39E5A6" d="M34.0648 131.163C36.9829 133.891 45.2782 140.87 46.7717 143.8C46.7388 144.101 46.7448 144.393 46.5435 144.635C42.4717 145.394 38.2497 145.641 34.1316 146.101C34.1079 143.614 34.0978 141.109 33.85 138.633C33.63 136.434 33.1161 134.222 33.1195 132.012L34.0648 131.163Z"/>
	<path fill="#32BFD1" d="M13.9019 144.386C14.7984 143.896 16.0167 143.051 17.083 143.297C17.732 143.447 18.5893 144.144 19.1466 144.524C22.5366 146.4 23.905 146.164 27.5082 146.721C29.6343 146.823 31.8292 146.797 33.9415 146.541C33.9278 150.909 33.8676 155.27 33.0092 159.563C32.7745 159.962 32.503 160.346 32.2492 160.734L31.8238 160.805C26.3388 157.509 21.2822 152.83 17.1808 147.946L13.9019 144.386Z"/>
	<path fill="#39E5A6" d="M13.9019 144.386C14.7984 143.896 16.0167 143.051 17.083 143.297C17.732 143.447 18.5893 144.144 19.1466 144.524C22.5366 146.4 23.905 146.164 27.5082 146.721C25.2933 146.785 18.9458 146.13 17.469 147.659C17.3716 147.76 17.2975 147.869 17.1808 147.946L13.9019 144.386Z"/>
	<path fill="#FCFCFC" d="M13.9019 144.386L13.7553 143.886C14.0559 142.815 15.2411 141.729 15.9964 140.928C20.8058 135.826 26.1333 132.427 31.787 128.404C32.3689 128.677 32.4752 129.331 32.7235 129.912L34.0648 131.163L33.1195 132.012C33.1161 134.222 33.63 136.434 33.85 138.633C34.0978 141.109 34.1079 143.614 34.1316 146.101L33.9415 146.541C31.8292 146.797 29.6343 146.823 27.5082 146.721C23.905 146.164 22.5366 146.4 19.1466 144.524C18.5893 144.144 17.732 143.447 17.083 143.297C16.0167 143.051 14.7984 143.896 13.9019 144.386Z"/>
	<path fill="#4EF8A7" d="M32.7235 129.912L34.0648 131.163L33.1195 132.012C33.1161 134.222 33.63 136.434 33.85 138.633C34.0978 141.109 34.1079 143.614 34.1316 146.101L33.9415 146.541C31.8292 146.797 29.6343 146.823 27.5082 146.721C23.905 146.164 22.5366 146.4 19.1466 144.524C20.308 144.475 21.4921 144.591 22.6575 144.588C25.094 144.582 26.9334 143.484 28.6207 141.772C32.1039 138.239 32.7519 134.723 32.7235 129.912Z"/>
	<path fill="#1E1554" d="M271.886 131.984C271.95 131.963 272.013 131.943 272.076 131.921C275.565 130.697 281.979 123.43 284.45 120.482C285.798 118.875 287.24 116.657 288.925 115.429C289.513 115 289.873 114.907 290.552 115.209C291.263 115.525 291.934 116.116 292.503 116.635C295.128 119.032 297.429 121.778 300.044 124.188C305.915 129.597 312.117 134.715 317.769 140.356C318.705 141.29 319.886 142.329 320.386 143.582C319.504 147.297 303.062 161.596 299.213 165.501C297.24 167.503 293.673 172.145 291.664 173.418C291.609 173.453 291.553 173.485 291.497 173.519L291.341 173.616C291.236 173.681 291.127 173.742 291.019 173.802C289.7 171.954 273.794 156.952 272.073 156.272C271.779 157.577 271.175 158.819 270.423 159.92L269.645 160.185L269.477 160.72C268.631 158.742 270.096 159.834 270.18 157.189C270.623 156.962 271.171 156.38 271.321 155.895C271.389 155.675 271.311 155.778 271.459 155.593C271.484 155.561 271.515 155.532 271.543 155.502C270.478 153.946 267.417 151.028 265.701 150.238C265.492 149.289 260.533 145.025 259.51 143.886C261.575 141.581 271.441 133.907 271.886 131.984Z"/>
	<defs>
		<linearGradient id="gradient_0" gradientUnits="userSpaceOnUse" x1="281.59668" y1="143.34718" x2="283.48642" y2="158.20143">
			<stop offset="0" stop-color="#1ED29E"/>
			<stop offset="1" stop-color="#1EBBC4"/>
		</linearGradient>
	</defs>
	<path fill="url(#gradient_0)" d="M272.696 143.993C274.71 143.602 286.482 143.83 287.971 144.72C288.837 145.12 288.798 145.221 289.125 146.111C289.539 147.24 289.631 148.632 290.3 149.63L290.711 149.766C290.64 150.652 290.273 151.414 290.18 152.292C289.961 154.339 290.036 156.432 289.98 158.489C289.969 158.886 290.027 159.476 289.933 159.848C289.889 160.019 289.563 160.414 289.435 160.557C288.744 159.176 285.297 156.631 284.027 155.478C279.988 151.81 276.361 148.022 272.696 143.993Z"/>
	<path fill="#FCFCFC" d="M272.696 143.993L272.848 143.338C276.2 139.353 280.628 135.941 284.466 132.385C285.819 131.131 286.998 129.613 288.401 128.442C288.814 128.097 289.185 127.811 289.737 127.741C290.255 128.073 290.244 128.166 290.452 128.756C290.855 130.754 289.884 142.761 288.894 144.301C288.652 144.678 288.37 144.645 287.971 144.72C286.482 143.83 274.71 143.602 272.696 143.993Z"/>
	<path fill="#087CB6" d="M290.452 128.756C291.79 129.146 296.172 132.66 296.894 133.824C296.952 133.917 297.009 134.083 297.045 134.177C298.156 134.457 307.871 142.568 308.689 143.782C308.798 143.945 308.8 143.998 308.844 144.164C308.143 146.574 294.023 159.341 291.175 160.919C290.955 161.041 290.775 161.096 290.534 161.163C290.116 160.997 289.797 160.826 289.435 160.557C289.563 160.414 289.889 160.019 289.933 159.848C290.027 159.476 289.969 158.886 289.98 158.489C290.036 156.432 289.961 154.339 290.18 152.292C290.273 151.414 290.64 150.652 290.711 149.766L290.3 149.63C289.631 148.632 289.539 147.24 289.125 146.111C288.798 145.221 288.837 145.12 287.971 144.72C288.37 144.645 288.652 144.678 288.894 144.301C289.884 142.761 290.855 130.754 290.452 128.756Z"/>
	<path fill="#39E5A6" d="M290.452 128.756C291.79 129.146 296.172 132.66 296.894 133.824C296.952 133.917 297.009 134.083 297.045 134.177L296.879 134.344L296.366 133.973L296.117 134.576L296.158 134.508C296.164 134.551 296.168 134.594 296.175 134.636C296.639 137.347 301.976 141.927 302.328 143.705C300.615 144.844 298.472 145.615 296.602 146.499C294.53 147.478 292.656 148.562 290.711 149.766L290.3 149.63C289.631 148.632 289.539 147.24 289.125 146.111C288.798 145.221 288.837 145.12 287.971 144.72C288.37 144.645 288.652 144.678 288.894 144.301C289.884 142.761 290.855 130.754 290.452 128.756Z"/>
	<path fill="#57D7F5" d="M249.487 119.95C249.55 119.957 249.613 119.964 249.676 119.969C251.601 120.131 254.047 119.149 255.955 118.747C260.055 117.885 266.461 117.598 269.464 121.007C271.264 123.051 271.739 126.029 271.525 128.671C271.442 129.696 271.032 130.915 271.722 131.79C271.775 131.857 271.832 131.92 271.886 131.984C271.441 133.907 261.575 141.581 259.51 143.886C260.533 145.025 265.492 149.289 265.701 150.238C267.417 151.028 270.478 153.946 271.543 155.502C271.515 155.532 271.484 155.561 271.459 155.593C271.311 155.778 271.389 155.675 271.321 155.895C271.171 156.38 270.623 156.962 270.18 157.189C270.096 159.834 268.631 158.742 269.477 160.72C272.144 162.943 274.409 167.46 274.7 170.906C275.073 175.335 273.151 179.985 270.279 183.286C268.37 185.481 265.977 187.12 263.281 188.2C259.204 189.833 246.6 190.922 245.162 195.241L244.779 195.119C243.503 196.179 241.44 198.643 241.105 200.328L239.494 200.092C239.652 198.28 239.651 196.413 239.525 194.6C239.309 191.512 238.585 188.732 237.211 185.955C234.837 181.158 231.263 177.241 227.767 173.252C221.782 166.422 215.765 160.232 208.912 154.271C210.398 152.465 211.264 150.31 212.67 148.481C214.304 146.355 217.709 146.957 220.137 146.603C221.728 146.371 223.415 145.722 224.926 145.188C234.064 141.96 240.059 135.358 245.161 127.367C246.649 125.035 247.773 122.234 249.411 120.048C249.436 120.015 249.462 119.983 249.487 119.95ZM243.002 144.514C241.322 145.471 239.535 146.468 238.998 148.49C238.126 151.771 240.676 153.119 236.086 155.93C234.116 157.136 231.766 157.955 229.644 158.871C229.657 160.115 229.677 161.35 229.77 162.592C232.321 162.472 234.952 162.215 237.499 162.444C237.976 164.592 238.288 167.442 239.745 169.138C240.777 169.181 241.672 169.269 242.5 168.53C243.958 167.229 244.343 165.06 245.84 163.735C245.875 163.704 245.909 163.673 245.944 163.642C247.599 162.193 252.767 161.858 253.028 159.253C253.099 158.548 252.825 157.872 252.361 157.35C250.694 155.475 245.311 155.3 244.58 153.224C244.056 151.736 244.27 149.7 244.208 148.111C244.165 146.986 244.069 145.15 243.002 144.514Z"/>
	<path fill="#BDDFF4" d="M265.701 150.238C267.417 151.028 270.478 153.946 271.543 155.502C271.515 155.532 271.484 155.561 271.459 155.593C271.311 155.778 271.389 155.675 271.321 155.895C271.171 156.38 270.623 156.962 270.18 157.189C269.173 157.07 268.331 158.585 267.266 158.68C266.589 158.317 266.283 157.794 266.013 157.102C265.234 155.108 264.819 152.209 265.701 150.238Z"/>
	<path fill="#FCFCFC" d="M249.671 171.28C251.152 171.042 253.706 171.022 254.947 171.991C255.514 172.434 255.697 173.08 255.743 173.767C255.866 175.572 254.128 177.967 252.982 179.214C252.443 179.538 251.877 180.048 251.225 179.988C250.425 179.914 249.521 179.264 249.007 178.674C248.032 177.554 247.538 175.843 247.683 174.373C247.821 172.976 248.635 172.134 249.671 171.28Z"/>
	<path fill="#57D7F5" d="M77.5436 125.542C81.8228 133.525 93.8616 143.774 102.604 146.409C105.219 147.197 107.94 147.516 110.653 147.748C111.777 150.126 113.241 152.657 115.198 154.452C107.934 162.102 91.6809 178.077 87.8147 187.163C86.4545 190.36 86.0305 193.873 86.1251 197.326C86.2704 202.63 88.725 206.913 92.5317 210.484C96.5177 214.223 102.044 216.637 107.558 216.445C109.869 216.364 112.244 215.876 114.456 215.215C113.658 217.681 112.929 220.144 112.415 222.687C111.788 225.789 111.408 229.018 110.374 232.015C109.803 233.67 108.175 235.133 107.249 236.637C105.091 240.142 103.82 244.262 102.753 248.208C98.98 248.124 95.1071 248.245 91.3523 247.973C85.1929 248.312 78.8957 248.086 72.7179 248.079L42.3693 248.028C42.3452 247.361 42.3595 246.663 42.4397 246C42.837 242.715 44.6748 238.905 47.7125 237.324C51.1373 235.542 64.4541 236.059 68.7862 236.33C72.0072 236.531 82.4339 238.256 84.6368 236.562L84.7406 235.95L84.6781 235.112C83.078 234.11 80.2708 234.516 78.4243 234.182C78.1392 234.13 78.154 234.027 77.9966 233.799C78.6942 232.623 79.0301 230.479 80.4146 229.938C82.1869 229.245 85.0535 231.487 86.653 232.27C87.7457 232.804 89.243 233.324 90.4334 232.883C90.4872 232.863 90.5394 232.839 90.5924 232.817C94.9253 232.764 99.2939 233.011 103.634 233.028C101.228 230.466 98.5595 227.895 96.4055 225.126C92.0043 219.468 88.9443 212.284 81.7563 209.584C77.4639 207.972 72.6772 209.214 68.6721 211.058C67.2021 212.012 65.3733 213.086 63.552 212.67C62.7707 212.491 62.2557 211.902 61.7391 211.336C62.5639 208.891 62.8649 206.649 62.9695 204.074C61.8026 199.324 61.3891 196.935 58.1982 192.916C56.6877 191.363 55.2261 189.892 53.379 188.74C53.1251 188.581 53.0118 188.513 52.9031 188.217L53.7442 186.721C53.5172 185.932 52.9368 185.309 52.4489 184.666C49.9908 181.425 48.1912 179.09 48.2478 174.803C48.3103 170.068 50.8945 165.813 54.2205 162.596C57.9637 158.976 62.4833 158.387 67.5062 158.463C66.4567 152.943 66.2206 135.932 68.9743 131.216C70.8552 127.994 74.0795 126.439 77.5436 125.542Z"/>
	<path fill="#BDDFF4" d="M62.9695 204.074C63.7913 205.091 63.2104 206.767 63.2541 208.005C63.2684 208.41 63.5087 208.768 63.4707 209.168C63.4654 209.224 63.4563 209.28 63.4492 209.335L62.8935 209.365L63.2486 209.291L63.0292 209.407L62.8821 209.651C63.1867 210.014 63.4225 210.223 63.8358 210.457C64.8108 211.011 64.4474 212.216 65.7624 211.942C65.7986 211.198 65.1472 210.5 65.574 209.942L65.374 210.446L65.6503 209.996C66.1768 210.416 66.6616 211.003 67.135 211.488C67.6186 211.086 67.9896 210.746 68.6143 210.583L68.6721 211.058C67.2021 212.012 65.3733 213.086 63.552 212.67C62.7707 212.491 62.2557 211.902 61.7391 211.336C62.5639 208.891 62.8649 206.649 62.9695 204.074Z"/>
	<path fill="#BDDFF4" d="M53.7442 186.721L54.2284 186.608C55.7461 187.791 58.2012 189.429 58.6473 191.373C58.5218 191.892 58.4244 192.431 58.1982 192.916C56.6877 191.363 55.2261 189.892 53.379 188.74C53.1251 188.581 53.0118 188.513 52.9031 188.217L53.7442 186.721Z"/>
	<path fill="#2BB5F5" d="M84.6368 236.562L84.7406 235.95C84.7815 236.639 84.7997 236.723 84.4382 237.302C82.8056 238.09 61.5944 236.379 57.2634 236.506C56.5061 237.02 55.432 237.796 55.2662 238.772C55.0896 239.813 55.6524 241.086 55.6101 242.175C55.5647 243.345 54.8296 244.563 54.9346 245.704C54.9798 246.196 55.2516 246.636 55.5115 247.043C57.6124 248.58 86.094 246.987 91.3523 247.973C85.1929 248.312 78.8957 248.086 72.7179 248.079L42.3693 248.028C42.3452 247.361 42.3595 246.663 42.4397 246C42.837 242.715 44.6748 238.905 47.7125 237.324C51.1373 235.542 64.4541 236.059 68.7862 236.33C72.0072 236.531 82.4339 238.256 84.6368 236.562Z"/>
	<path fill="#FCFCFC" d="M79.3793 148.612C80.8738 148.821 82.4731 148.811 83.9839 148.899C84.4095 151.725 84.8549 154.543 85.346 157.359C88.6022 158.848 91.9329 159.65 94.9353 161.706C91.8349 163.548 88.3606 164.438 85.3922 166.577C84.6191 168.783 84.3234 171.348 83.8843 173.652C82.3211 173.778 80.6879 173.704 79.116 173.722C78.9668 171.41 78.4423 169.142 77.95 166.885C74.9689 166.24 71.9107 166.002 68.8811 165.692C68.9726 164.136 68.9586 162.56 68.9892 161.002C70.9524 160.118 77.3995 159.265 78.3899 158.405C79.5405 157.407 79.2479 150.389 79.3793 148.612Z"/>
	<path fill="#1E1554" d="M116.479 76.6971C118.113 68.1124 124.147 59.2346 130.339 53.1794C136.993 46.6735 155.325 37.7509 164.153 34.1431C174.005 30.1166 194.608 23.2022 204.827 23.3582C212.58 23.4766 225.384 29.7846 231.714 34.2047C236.272 37.3877 240.398 41.1466 244.673 44.6881C247.543 47.065 250.623 49.1947 253.226 51.876C256.639 55.3922 259.36 60.9996 259.234 66.0003C259.123 70.4023 256.902 74.2864 253.738 77.2212C250.028 80.6617 244.867 83.0226 239.735 82.7816C235.838 82.5986 232.074 80.6245 229.501 77.7234C226.104 73.8941 224.458 68.1856 224.777 63.1393C221.357 63.8811 217.617 64.4397 214.841 66.7359C211.506 69.494 210.802 73.3474 210.386 77.3978C212.595 77.5752 215.317 77.6174 216.849 79.4878C218.961 82.0652 218.636 94.5954 218.271 98.1942C222.246 97.1969 226.882 97.3387 230.989 96.975C239.967 96.1798 249.64 94.3091 258.632 95.3095C258.362 104.288 252.381 111.721 249.487 119.95C249.462 119.983 249.436 120.015 249.411 120.048C247.773 122.234 246.649 125.035 245.161 127.367C240.059 135.358 234.064 141.96 224.926 145.188C223.415 145.722 221.728 146.371 220.137 146.603C217.709 146.957 214.304 146.355 212.67 148.481C211.264 150.31 210.398 152.465 208.912 154.271C215.765 160.232 221.782 166.422 227.767 173.252C231.263 177.241 234.837 181.158 237.211 185.955C238.585 188.732 239.309 191.512 239.525 194.6C239.651 196.413 239.652 198.28 239.494 200.092C238.875 202.567 237.748 204.798 236.578 207.052C235.802 208.09 235.057 209.2 234.131 210.11L234.224 210.286C235.332 212.415 235.557 215.655 238.065 216.699C232.787 221.225 226.292 221.515 222.446 226.129C220.575 228.374 219.202 231.22 217.736 233.741C219.726 234.746 235.418 233.658 239.085 233.748C242.389 233.83 245.532 234.872 248.802 235.144C254.264 235.598 259.795 235.327 265.264 235.617C268.195 235.772 271.082 236.365 274 236.642C276.209 236.852 279.009 236.685 281.027 237.628C283.437 238.753 285.41 241.517 286.241 243.981C286.588 245.011 286.884 246.663 286.373 247.674C286.355 247.709 286.332 247.741 286.311 247.774C288.318 249.189 296.233 247.167 299.976 248.891C300.924 249.328 301.668 249.993 302.012 251.002C302.391 252.112 302.309 253.56 301.778 254.606C301.371 255.406 300.89 256.041 300.007 256.322C295.891 257.628 275.862 256.846 270.34 256.879L156.383 256.75L66.4994 256.935C54.1337 256.917 41.7894 257.116 29.4245 256.778C28.2388 256.746 26.3993 256.817 25.3717 256.183C24.3209 255.535 24.0167 253.63 23.7569 252.506C24.054 251.678 24.4024 250.68 24.9606 249.995C27.5768 246.787 38.1031 248.463 42.2039 248.047C42.2591 248.041 42.3142 248.035 42.3693 248.028L72.7179 248.079C78.8957 248.086 85.1929 248.312 91.3523 247.973C95.1071 248.245 98.98 248.124 102.753 248.208C103.82 244.262 105.091 240.142 107.249 236.637C108.175 235.133 109.803 233.67 110.374 232.015C111.408 229.018 111.788 225.789 112.415 222.687C112.929 220.144 113.658 217.681 114.456 215.215C112.244 215.876 109.869 216.364 107.558 216.445C102.044 216.637 96.5177 214.223 92.5317 210.484C88.725 206.913 86.2704 202.63 86.1251 197.326C86.0305 193.873 86.4545 190.36 87.8147 187.163C91.6809 178.077 107.934 162.102 115.198 154.452C113.241 152.657 111.777 150.126 110.653 147.748C107.94 147.516 105.219 147.197 102.604 146.409C93.8616 143.774 81.8228 133.525 77.5436 125.542C74.7728 119.461 65.4664 104.043 65.1639 98.1891C65.1312 97.557 65.2818 96.6779 65.7427 96.2193C67.8325 94.1397 100.947 97.5687 106.515 97.5961C106.508 92.6248 106.547 87.5371 107.019 82.5891C107.164 81.065 107.27 78.8865 108.559 77.8677C110.591 76.2622 114.033 76.4286 116.479 76.6971Z"/>
	<path fill="#5FD3C1" d="M125.855 202.866C125.826 202.823 125.794 202.783 125.768 202.739C124.902 201.248 126.04 197.687 126.365 196.061C126.881 197.1 128.194 197.217 129.108 197.97L129.148 198.177C127.398 199.511 129.117 201.466 125.855 202.866Z"/>
	<path fill="#18348D" d="M171.273 179.552C171.067 179.085 171.018 179.087 171.185 178.574C171.501 178.226 171.816 178.008 172.247 177.828C176.674 175.972 181.31 174.544 185.78 172.78C188.709 171.625 191.492 170.077 194.46 169.037C193.578 170.035 193.287 171.376 192.378 172.265L192.174 172.563C186.666 175.834 177.666 179.414 171.273 179.552Z"/>
	<defs>
		<linearGradient id="gradient_1" gradientUnits="userSpaceOnUse" x1="204.72775" y1="168.67148" x2="197.70271" y2="169.05502">
			<stop offset="0" stop-color="#6B3A91"/>
			<stop offset="1" stop-color="#49469B"/>
		</linearGradient>
	</defs>
	<path fill="url(#gradient_1)" d="M203.147 162.639C204.839 164.049 206.627 165.478 208.145 167.077C206.522 168.308 205.296 170.239 205.016 172.284C204.917 173.015 204.959 173.809 205 174.546C203.222 173.508 199.311 175.153 197.237 175.401C197.586 172.446 200.068 169.794 198.964 166.636L198.204 166.272C199.646 164.857 201.446 163.717 203.147 162.639Z"/>
	<path fill="#009D52" d="M216.519 107.587C220.605 107.638 224.783 107.053 228.852 106.663C234.543 106.118 240.2 105.642 245.907 105.288C244.906 107.123 244.359 109.166 243.382 111.016C243.115 110.468 243.145 110.022 243.35 109.448C243.766 108.284 244.35 107.137 244.886 106.023C244.533 105.699 243.047 105.89 242.52 105.912C239.08 106.059 235.665 106.484 232.24 106.804C229.739 107.037 227.211 107.143 224.735 107.574L224.733 107.805C225.395 107.965 225.679 107.98 226.34 107.915C226.454 107.904 226.629 107.943 226.746 107.965C226.884 108.239 227.068 108.418 226.96 108.723C226.808 109.15 226.284 109.512 225.947 109.8L226.135 110.256C226.521 110.268 226.72 110.186 226.991 110.474C227.584 111.102 228.266 111.82 228.239 112.747C228.23 113.056 228.171 113.165 227.939 113.385C227.488 113.813 226.793 113.919 226.489 114.46C227.792 114.27 229.21 114.182 230.475 113.829C232.154 113.36 237.945 110.444 239.211 111.058C238.188 111.48 237.123 111.618 236.07 111.929C234.596 112.364 232.814 113.308 231.506 114.101C229.914 114.503 228.259 114.612 226.658 115.021C223.651 115.789 220.72 116.982 217.796 118.023C217.78 114.575 217.042 110.992 216.519 107.587Z"/>
	<path fill="#FCFCFC" d="M77.888 105.994C85.2633 105.884 92.5876 106.374 99.9213 107.135C102.182 107.369 104.617 107.451 106.814 108.027C107.099 108.662 106.937 109.013 106.822 109.679C98.2798 111.625 93.0298 109.992 84.9994 110.264C83.8856 111.177 82.7207 111.809 81.4496 112.465C80.2958 110.275 78.9613 108.244 77.888 105.994Z"/>
	<path fill="#BCF6E7" d="M130.037 168.568C131.656 169.559 133.27 170.644 134.957 171.511C133.737 172.29 133.324 174.934 133.022 176.306C132.129 180.356 131.578 184.474 130.372 188.451C130.169 191.064 128.666 195.761 129.108 197.97C128.194 197.217 126.881 197.1 126.365 196.061C126.549 194.103 126.479 191.095 127.186 189.314C127.342 185.221 128.124 181.011 128.645 176.943C128.25 175.86 125.992 176.112 124.58 174.379C125.428 174.098 126.209 173.564 126.895 173.004C127.849 172.485 128.776 171.488 129.608 170.775C129.702 170.012 129.812 169.305 130.037 168.568Z"/>
	<path fill="#555359" d="M126.895 173.004C127.849 172.485 128.776 171.488 129.608 170.775C129.364 172.725 129.265 175.077 128.645 176.943C128.25 175.86 125.992 176.112 124.58 174.379C125.428 174.098 126.209 173.564 126.895 173.004Z"/>
	<path fill="#39E5A6" d="M130.372 188.451C130.169 191.064 128.666 195.761 129.108 197.97C128.194 197.217 126.881 197.1 126.365 196.061C126.549 194.103 126.479 191.095 127.186 189.314C127.605 190.65 126.832 191.924 127.196 193.15C127.338 193.256 128.802 193.618 128.981 193.598L128.765 193.293L128.878 193.243C128.211 191.216 129.57 190.151 130.372 188.451Z"/>
	<path fill="#32BFD1" d="M243.17 62.562C244.43 62.4381 246.244 62.0634 247.327 62.8509C248.585 63.7658 248.631 65.8016 248.827 67.2166C248.103 68.5158 247.314 69.7203 246.303 70.8181C244.533 72.7396 242.854 73.4672 240.316 73.5654C239.824 73.5299 239.332 73.4474 238.906 73.1798C237.093 72.0398 234.962 68.5833 234.592 66.5277C234.503 66.0334 234.468 65.3338 234.783 64.9131C235.872 63.4636 241.276 62.9193 243.17 62.562Z"/>
	<path fill="#009D52" d="M136.48 226.291C139.424 227.922 141.962 230.818 144.349 233.175C142.57 238.12 140.924 243.094 139.318 248.096C135.351 247.896 131.407 247.815 127.44 247.715C129.042 247.39 130.703 247.722 132.285 247.223C133.573 244.658 136.595 234.486 136.816 231.719C136.965 229.847 136.588 228.14 136.48 226.291Z"/>
	<path fill="#FCFCFC" d="M124.103 213.403C125.024 214.33 126.006 215.224 126.653 216.371C125.728 220.393 125.737 225.15 125.738 229.282C125.739 231.132 125.896 233.124 125.618 234.953C125.402 236.375 124.895 237.717 124.085 238.906C122.957 240.562 116.759 246.272 114.824 247.964C114.484 247.995 114.061 248.068 113.723 248.024C113.162 247.951 113.005 247.68 112.675 247.277C112.606 246.873 112.587 246.498 112.688 246.099C113.624 242.416 117.109 238.91 120.253 237.019C120.439 228.726 121.501 221.286 124.103 213.403Z"/>
	<path fill="#57D7F5" d="M153.177 237.827C153.884 238.041 154.656 238.752 155.311 239.148C157.84 240.675 160.254 242.057 163.135 242.805C166.529 241.928 169.301 239.657 172.291 237.893C173.273 240.7 173.858 243.503 174.397 246.419C174.386 246.839 174.309 247.194 174.202 247.599C170.873 248.859 155.301 247.587 150.22 247.947C151.016 244.511 151.9 241.119 153.177 237.827Z"/>
	<path fill="#FCFCFC" d="M116.739 108.29C119.744 108.166 122.713 107.948 125.724 108.078C120.261 121.466 118.613 128.906 123.404 142.933C123.392 142.981 123.377 143.028 123.367 143.076C123.001 144.847 125.389 146.224 123.871 147.859L123.7 147.897C122.994 146.84 122.299 145.468 121.113 144.914C121.079 144.875 121.043 144.837 121.011 144.796C113.155 134.383 114.747 120.303 116.739 108.29Z"/>
	<defs>
		<linearGradient id="gradient_2" gradientUnits="userSpaceOnUse" x1="216.80476" y1="189.42603" x2="222.57784" y2="205.38138">
			<stop offset="0" stop-color="#009D52"/>
			<stop offset="1" stop-color="#009D52"/>
		</linearGradient>
	</defs>
	<path fill="url(#gradient_2)" d="M225.861 186.967C228.45 190.164 229.773 194.104 229.372 198.22C229.136 200.646 228.061 202.523 226.183 204.065C224.191 205.7 221.708 206.668 219.113 206.404C216.246 206.112 212.787 204.359 210.686 202.359C209.35 199.196 208.996 195.294 208.481 191.908C208.817 192.02 209.215 192.066 209.564 192.135C211.396 193.379 212.987 197.572 214.103 199.505C218.484 195.983 222.806 191.688 225.861 186.967Z"/>
	<path fill="#FCFCFC" d="M96.3246 198.858C96.1006 196.788 95.8689 194.643 96.2675 192.58C97.734 184.99 115.284 166.6 121.834 162.197C123.896 163.459 125.564 164.744 127.2 166.527L126.632 167.022C117.869 173.358 100.884 189.256 96.934 198.851L96.5411 199.012L96.3246 198.858Z"/>
	<defs>
		<linearGradient id="gradient_3" gradientUnits="userSpaceOnUse" x1="153.94926" y1="90.524193" x2="116.49821" y2="90.221344">
			<stop offset="0" stop-color="#E8FCFE"/>
			<stop offset="1" stop-color="#FFFFFE"/>
		</linearGradient>
	</defs>
	<path fill="url(#gradient_3)" d="M116.431 84.5206C121.71 84.3098 126.891 83.5486 132.146 83.0985C141.221 82.3213 150.979 81.9434 160.048 82.7663L159.827 82.8152C157.999 83.2091 155.399 82.2635 154.291 83.9319C153.827 84.6311 153.457 85.4208 153.08 86.1697L153.179 86.4788C154.94 86.9007 157.4 86.3593 159.248 86.2676C158.657 86.4585 158.062 86.6094 157.459 86.7558C149.118 87.2297 130.511 86.5137 123.678 90.3118C122.304 92.5226 121.154 95.6251 121.743 98.2579C120.338 98.2912 117.72 98.8896 116.577 97.9737C115.507 95.3531 116.296 87.6299 116.431 84.5206Z"/>
	<path fill="#57D7F5" d="M234.131 210.11L234.224 210.286C235.332 212.415 235.557 215.655 238.065 216.699C232.787 221.225 226.292 221.515 222.446 226.129C220.575 228.374 219.202 231.22 217.736 233.741C217.487 234.267 217.355 234.335 216.863 234.663C215.999 233.881 215.114 233.115 214.595 232.05C213.141 229.066 213.187 224.995 212.659 221.746C212.265 219.33 211.667 216.983 210.989 214.633C213.459 215.445 215.886 216.194 218.495 216.377C224.573 216.801 229.673 213.965 234.131 210.11Z"/>
	<path fill="#009D52" d="M126.653 216.371C130.436 218.577 133.439 223.124 136.48 226.291C136.588 228.14 136.965 229.847 136.816 231.719C136.595 234.486 133.573 244.658 132.285 247.223C130.703 247.722 129.042 247.39 127.44 247.715C124.13 247.865 117.787 248.709 114.824 247.964C116.759 246.272 122.957 240.562 124.085 238.906C124.895 237.717 125.402 236.375 125.618 234.953C125.896 233.124 125.739 231.132 125.738 229.282C125.737 225.15 125.728 220.393 126.653 216.371Z"/>
	<path fill="#009D52" d="M231.506 114.101C232.814 113.308 234.596 112.364 236.07 111.929C237.123 111.618 238.188 111.48 239.211 111.058C237.945 110.444 232.154 113.36 230.475 113.829C229.21 114.182 227.792 114.27 226.489 114.46C226.793 113.919 227.488 113.813 227.939 113.385C228.171 113.165 228.23 113.056 228.239 112.747C228.266 111.82 227.584 111.102 226.991 110.474C226.72 110.186 226.521 110.268 226.135 110.256L225.947 109.8C226.284 109.512 226.808 109.15 226.96 108.723C227.068 108.418 226.884 108.239 226.746 107.965C226.629 107.943 226.454 107.904 226.34 107.915C225.679 107.98 225.395 107.965 224.733 107.805L224.735 107.574C227.211 107.143 229.739 107.037 232.24 106.804C235.665 106.484 239.08 106.059 242.52 105.912C243.047 105.89 244.533 105.699 244.886 106.023C244.35 107.137 243.766 108.284 243.35 109.448C243.145 110.022 243.115 110.468 243.382 111.016C241.016 118.845 232.603 130.347 225.234 134.279C222.927 135.51 220.452 136.475 217.914 137.103C218.27 134.309 218.674 131.881 219.903 129.324C225.525 126.451 229.226 121.555 231.178 115.591C231.341 115.092 231.493 114.63 231.506 114.101Z"/>
	<path fill="#009D52" d="M106.822 109.679C106.62 112.295 106.299 114.95 106.232 117.57C101.981 116.06 98.2637 114.919 93.7102 114.733C96.1083 122.117 99.5219 125.236 105.919 129.449C106.166 132.093 106.239 134.72 106.427 137.362C102.94 135.896 99.1524 134.549 95.9946 132.438C90.5768 128.816 84.3156 118.266 81.4496 112.465C82.7207 111.809 83.8856 111.177 84.9994 110.264C93.0298 109.992 98.2798 111.625 106.822 109.679Z"/>
	<path fill="#009D52" d="M208.145 167.077C209.596 168.455 211.291 169.821 212.585 171.336C217.479 176.128 222.033 181.268 225.861 186.967C222.806 191.688 218.484 195.983 214.103 199.505C212.987 197.572 211.396 193.379 209.564 192.135C209.215 192.066 208.817 192.02 208.481 191.908C208.065 189.813 207.326 187.75 206.847 185.662C206.258 183.09 205.947 180.449 205.596 177.836L205 174.546C204.959 173.809 204.917 173.015 205.016 172.284C205.296 170.239 206.522 168.308 208.145 167.077Z"/>
	<path fill="#009D52" d="M208.145 167.077C209.596 168.455 211.291 169.821 212.585 171.336C211.866 172.199 211.133 173.058 210.291 173.804C208.942 174.999 206.47 176.312 205.596 177.836L205 174.546C204.959 173.809 204.917 173.015 205.016 172.284C205.296 170.239 206.522 168.308 208.145 167.077Z"/>
	<path fill="#009D52" d="M127.2 166.527C128.29 167.093 129.122 167.764 130.037 168.568C129.812 169.305 129.702 170.012 129.608 170.775C128.776 171.488 127.849 172.485 126.895 173.004C126.209 173.564 125.428 174.098 124.58 174.379C123.417 174.505 122.905 174.773 122.167 175.682C117.656 181.245 118.028 195.441 114.638 201.474C113.127 204.161 110.027 206.142 106.982 206.477C104.275 206.774 101.33 205.929 99.2288 204.188C97.6827 202.906 96.5145 201.006 96.3338 198.983C96.3301 198.942 96.3277 198.9 96.3246 198.858L96.5411 199.012L96.934 198.851C100.884 189.256 117.869 173.358 126.632 167.022L127.2 166.527Z"/>
	<defs>
		<linearGradient id="gradient_4" gradientUnits="userSpaceOnUse" x1="129.14673" y1="170.79573" x2="127.6181" y2="168.61946">
			<stop offset="0" stop-color="#5A5767"/>
			<stop offset="1" stop-color="#684F72"/>
		</linearGradient>
	</defs>
	<path fill="url(#gradient_4)" d="M127.2 166.527C128.29 167.093 129.122 167.764 130.037 168.568C129.812 169.305 129.702 170.012 129.608 170.775C128.776 171.488 127.849 172.485 126.895 173.004C126.941 172.843 126.981 172.681 127.015 172.517C127.354 170.89 127.545 168.448 126.632 167.022L127.2 166.527Z"/>
	<path fill="#4EF8A7" d="M160.048 82.7663C166.047 82.5661 172.109 83.253 178.119 83.2866L177.903 83.329C176.259 83.6392 174.025 83.0428 172.726 84.1811C172.744 84.8667 172.794 85.3378 172.312 85.9028C172.137 86.1083 171.855 86.2658 171.625 86.4038C173.566 87.238 176.133 85.8107 178.118 86.36L177.821 86.4625C177.784 86.4925 177.748 86.5237 177.709 86.5525C175.672 88.0931 165.879 86.5539 165.545 87.7196C165.24 88.7792 165.419 90.3488 165.304 91.4981C165.17 92.8428 164.514 94.7384 164.611 96.0281C164.626 96.2223 164.738 96.4733 164.862 96.6224C165.208 97.04 165.803 97.4159 166.237 97.75L174.726 97.6822L174.823 97.9557L174.921 97.8819L172.637 98.2227C164.017 98.4605 155.387 98.0979 146.766 98.0282C138.43 97.9608 130.081 98.1776 121.743 98.2579C121.154 95.6251 122.304 92.5226 123.678 90.3118C130.511 86.5137 149.118 87.2297 157.459 86.7558C158.062 86.6094 158.657 86.4585 159.248 86.2676C157.4 86.3593 154.94 86.9007 153.179 86.4788L153.08 86.1697C153.457 85.4208 153.827 84.6311 154.291 83.9319C155.399 82.2635 157.999 83.2091 159.827 82.8152L160.048 82.7663Z"/>
	<path fill="#BCF6E7" d="M160.048 82.7663C166.047 82.5661 172.109 83.253 178.119 83.2866L177.903 83.329C176.259 83.6392 174.025 83.0428 172.726 84.1811C172.744 84.8667 172.794 85.3378 172.312 85.9028C172.137 86.1083 171.855 86.2658 171.625 86.4038C173.566 87.238 176.133 85.8107 178.118 86.36L177.821 86.4625C171.014 87.0287 164.276 86.6969 157.459 86.7558C158.062 86.6094 158.657 86.4585 159.248 86.2676C157.4 86.3593 154.94 86.9007 153.179 86.4788L153.08 86.1697C153.457 85.4208 153.827 84.6311 154.291 83.9319C155.399 82.2635 157.999 83.2091 159.827 82.8152L160.048 82.7663Z"/>
	<path fill="#FCFCFC" d="M126.369 74.7386C126.619 74.2138 126.878 73.6945 127.144 73.1781C129.813 68.007 134.589 61.4543 138.988 57.6622C146.763 50.9607 170.09 40.4404 180.008 37.2806C186.462 35.2244 200.153 30.3679 206.421 31.6185C207.687 31.8709 209.101 32.7953 210.252 33.3883L210.05 33.4812C206.232 35.2144 201.634 35.9579 197.575 37.0874C192.473 38.5071 187.338 40.2689 182.365 42.092C172.787 45.603 163.957 50.8497 155.298 56.1606C152.116 58.112 148.781 59.962 145.766 62.1597C142.977 64.1923 140.341 66.4862 137.803 68.8218C136.307 70.1982 134.046 72.0889 133.268 74.0058L133.373 74.7936C131.038 74.71 128.721 74.8821 126.369 74.7386Z"/>
	<path fill="#009D52" d="M201.288 215.444C201.305 215.451 201.325 215.454 201.34 215.465C202.766 216.441 202.948 225.174 203.095 227.127C203.249 229.178 203.3 235.988 203.865 237.159C204.372 238.207 208.889 240.284 210.185 241.968C211.51 243.689 212.148 245.796 212.882 247.815C206.273 247.496 199.7 247.226 193.082 247.22C190.393 247.215 187.713 247.15 185.025 247.057C185.018 241.58 183.099 236.998 180.449 232.328C182.599 230.654 184.761 228.975 186.745 227.105C189.229 224.762 191.566 222.204 194.229 220.062C196.391 218.322 198.965 216.968 201.288 215.444Z"/>
	<path fill="#009D52" d="M195.532 229.934L195.832 230.133C196.181 231.553 196.33 232.845 196.365 234.305C196.223 233.23 196.101 231.354 195.319 230.563L194.893 230.722C193.806 232.533 195.152 235.952 195.632 237.961C195.58 238.479 195.652 238.767 195.879 239.236C195.901 239.283 195.925 239.329 195.949 239.376C193.543 239.63 191.701 238.956 189.748 237.609C190.944 234.458 193.238 232.297 195.532 229.934Z"/>
	<path fill="#32BFD1" d="M178.119 83.2866C183.012 82.9673 188.108 83.6379 193.002 83.9554C198.118 84.2873 203.262 84.4208 208.367 84.8766C208.425 89.2127 208.008 93.8646 208.434 98.1446C196.524 98.2898 184.541 98.5982 172.637 98.2227L174.921 97.8819L174.823 97.9557L174.726 97.6822L166.237 97.75C165.803 97.4159 165.208 97.04 164.862 96.6224C164.738 96.4733 164.626 96.2223 164.611 96.0281C164.514 94.7384 165.17 92.8428 165.304 91.4981C165.419 90.3488 165.24 88.7792 165.545 87.7196C165.879 86.5539 175.672 88.0931 177.709 86.5525C177.748 86.5237 177.784 86.4925 177.821 86.4625L178.118 86.36C176.133 85.8107 173.566 87.238 171.625 86.4038C171.855 86.2658 172.137 86.1083 172.312 85.9028C172.794 85.3378 172.744 84.8667 172.726 84.1811C174.025 83.0428 176.259 83.6392 177.903 83.329L178.119 83.2866Z"/>
	<defs>
		<linearGradient id="gradient_5" gradientUnits="userSpaceOnUse" x1="169.56526" y1="131.95177" x2="196.20316" y2="154.24452">
			<stop offset="0" stop-color="#009D52"/>
			<stop offset="1" stop-color="#009D52"/>
		</linearGradient>
	</defs>
	<path fill="url(#gradient_5)" d="M193.42 108.456C197.93 108.003 202.525 107.909 207.055 108.012C208.406 125.696 212.259 136.532 199.305 151.662C193.401 158.558 186.808 163.019 178.416 166.345C175.339 167.564 172.344 168.613 169.02 168.866C158.907 169.636 148.876 168.124 140.035 163.053C138.588 162.223 136.827 161.286 135.58 160.184C135.46 160.078 135.346 159.968 135.234 159.854C137.487 160.283 141.154 163.102 143.287 164.302C144.215 161.885 146.269 161.784 148.017 160.197C148.41 159.841 148.53 159.746 148.547 159.195C147.832 158.691 146.801 158.659 145.951 158.633C143.98 158.57 141.537 157.676 139.776 156.787C142.066 156.995 146.473 158.47 149.222 158.978C159.457 160.869 172.237 160.821 181.684 156.137C185.575 154.165 188.965 152.273 191.97 149.053C194.614 146.219 196.581 143.08 198.221 139.579C201.848 131.835 201.784 127.746 201.504 119.391C200.927 116.363 199.801 111.511 197.599 109.253C196.567 108.196 194.79 108.448 193.42 108.456Z"/>
	<path fill="#009D52" d="M201.504 119.391C202.409 121.891 202.664 125.716 202.429 128.379C202.357 129.203 201.954 130.038 201.97 130.846C201.982 131.489 202.106 132.23 202.468 132.771C202.633 131.85 202.748 130.924 202.865 129.995C202.763 137.684 198.489 145.157 193.044 150.432C192.28 151.173 191.458 151.861 190.551 152.421C189.591 153.014 183.29 156.238 182.429 156.224C182.176 156.22 181.933 156.183 181.684 156.137C185.575 154.165 188.965 152.273 191.97 149.053C194.614 146.219 196.581 143.08 198.221 139.579C201.848 131.835 201.784 127.746 201.504 119.391Z"/>
	<path fill="#2798ED" d="M216.863 234.663C217.355 234.335 217.487 234.267 217.736 233.741C219.726 234.746 235.418 233.658 239.085 233.748C242.389 233.83 245.532 234.872 248.802 235.144C254.264 235.598 259.795 235.327 265.264 235.617C268.195 235.772 271.082 236.365 274 236.642C276.209 236.852 279.009 236.685 281.027 237.628C283.437 238.753 285.41 241.517 286.241 243.981C286.588 245.011 286.884 246.663 286.373 247.674C286.355 247.709 286.332 247.741 286.311 247.774L286 248.163C264.79 247.885 243.518 248.149 222.303 248.245C222.184 242.809 220.055 238.944 216.863 234.663Z"/>
	<path fill="#2798ED" d="M227.76 43.5198C232.96 47.5194 238.026 51.8607 242.791 56.3699C239.738 55.6089 236.667 55.1025 233.528 54.8641C227.441 54.4018 213.125 54.5757 207.996 57.5814C204.415 59.6801 202.655 65.2722 201.711 69.0707C201.206 71.105 200.746 73.3388 200.754 75.4434C192.526 74.764 184.114 75.0822 175.86 75.0664C172.441 75.0599 168.586 75.3741 165.235 74.7759C162.427 74.9055 159.505 74.6512 156.694 74.5264C157.83 74.3077 158.627 73.6757 159.676 73.2466C162.159 72.232 164.952 71.1404 167.572 70.5776C174.864 67.4561 183.256 65.0078 189.705 60.303C193 57.899 195.555 54.5498 198.4 51.6512C207.322 42.5633 215.567 45.3015 226.852 44.8606C227.427 44.5174 227.499 44.108 227.76 43.5198Z"/>
	<path fill="#57D7F5" d="M156.694 74.5264C157.83 74.3077 158.627 73.6757 159.676 73.2466C162.159 72.232 164.952 71.1404 167.572 70.5776C167.535 70.6181 167.499 70.6598 167.46 70.699C166.14 72.0419 163.435 72.2451 162.344 73.5156L162.544 74.1661C163.997 74.5375 165.857 74.4262 167.373 74.4878C166.978 74.7664 165.761 74.7331 165.235 74.7759C162.427 74.9055 159.505 74.6512 156.694 74.5264Z"/>
	<defs>
		<linearGradient id="gradient_6" gradientUnits="userSpaceOnUse" x1="160.31137" y1="185.45091" x2="176.45874" y2="226.0473">
			<stop offset="0" stop-color="#29A8C6"/>
			<stop offset="1" stop-color="#1173EB"/>
		</linearGradient>
	</defs>
	<path fill="url(#gradient_6)" d="M198.204 166.272L198.964 166.636C200.068 169.794 197.586 172.446 197.237 175.401C196.667 176.394 196.453 177.259 196.268 178.383C196.359 183.437 196.511 188.534 197.557 193.497C198.081 195.979 199.934 199.636 199.561 202.147C199.382 203.355 198.194 204.598 197.375 205.446C193.342 209.619 188.668 213.165 184.212 216.864C180.448 219.989 176.856 223.282 172.833 226.085C169.523 228.391 165.795 230.096 162.552 232.49C159.777 230.827 157.161 228.861 154.52 226.995C147.074 221.731 139.88 216.181 133.097 210.074C131.623 208.747 129.796 207.346 128.567 205.811C127.509 205.181 126.623 203.817 125.855 202.866C129.117 201.466 127.398 199.511 129.148 198.177C130.348 198.915 131.824 199.632 132.799 200.651C134.518 201.355 136.506 203.15 138.106 204.212C143.706 207.932 150.894 212.754 157.344 214.474C165.231 216.576 173.96 212.483 180.624 208.61C184.631 206.281 191.619 201.786 192.781 196.95C193.36 194.539 191.991 187.782 191.844 184.912C191.74 182.862 192.002 180.774 192.172 178.731C192.301 177.17 192.996 173.881 192.174 172.563L192.378 172.265C193.287 171.376 193.578 170.035 194.46 169.037C195.836 168.381 197.029 167.233 198.204 166.272Z"/>
	<path fill="#32BFD1" d="M129.148 198.177C130.348 198.915 131.824 199.632 132.799 200.651C131.77 200.289 130.725 199.62 129.627 199.692C128.861 200.377 128.688 202.506 127.467 203.967C127.853 204.377 128.729 205.098 128.8 205.626L128.567 205.811C127.509 205.181 126.623 203.817 125.855 202.866C129.117 201.466 127.398 199.511 129.148 198.177Z"/>
	<defs>
		<linearGradient id="gradient_7" gradientUnits="userSpaceOnUse" x1="198.48732" y1="170.26118" x2="194.25032" y2="170.21857">
			<stop offset="0" stop-color="#3A599E"/>
			<stop offset="1" stop-color="#206BAB"/>
		</linearGradient>
	</defs>
	<path fill="url(#gradient_7)" d="M198.204 166.272L198.964 166.636C200.068 169.794 197.586 172.446 197.237 175.401C196.667 176.394 196.453 177.259 196.268 178.383C196.094 176.031 195.979 173.68 195.879 171.323C194.722 171.667 193.545 171.955 192.378 172.265C193.287 171.376 193.578 170.035 194.46 169.037C195.836 168.381 197.029 167.233 198.204 166.272Z"/>
	<path fill="#4EF8A7" d="M210.252 33.3883C213.657 35.1036 217.289 36.3936 220.558 38.3616C223.102 39.8925 225.266 41.954 227.76 43.5198C227.499 44.108 227.427 44.5174 226.852 44.8606C215.567 45.3015 207.322 42.5633 198.4 51.6512C195.555 54.5498 193 57.899 189.705 60.303C183.256 65.0078 174.864 67.4561 167.572 70.5776C164.952 71.1404 162.159 72.232 159.676 73.2466C158.627 73.6757 157.83 74.3077 156.694 74.5264C151.714 74.7578 146.744 74.7455 141.761 74.7706C138.985 74.7845 136.142 74.9261 133.373 74.7936L133.268 74.0058C134.046 72.0889 136.307 70.1982 137.803 68.8218C140.341 66.4862 142.977 64.1923 145.766 62.1597C148.781 59.962 152.116 58.112 155.298 56.1606C163.957 50.8497 172.787 45.603 182.365 42.092C187.338 40.2689 192.473 38.5071 197.575 37.0874C201.634 35.9579 206.232 35.2144 210.05 33.4812L210.252 33.3883Z"/>
	<defs>
		<linearGradient id="gradient_8" gradientUnits="userSpaceOnUse" x1="147.62126" y1="165.15793" x2="175.85141" y2="210.80275">
			<stop offset="0" stop-color="#57FF9F"/>
			<stop offset="1" stop-color="#34DABC"/>
		</linearGradient>
	</defs>
	<path fill="url(#gradient_8)" d="M134.957 171.511C144.847 177.261 151.966 179.595 163.582 179.761C166.085 179.797 168.807 179.923 171.273 179.552C177.666 179.414 186.666 175.834 192.174 172.563C192.996 173.881 192.301 177.17 192.172 178.731C192.002 180.774 191.74 182.862 191.844 184.912C191.991 187.782 193.36 194.539 192.781 196.95C191.619 201.786 184.631 206.281 180.624 208.61C173.96 212.483 165.231 216.576 157.344 214.474C150.894 212.754 143.706 207.932 138.106 204.212C136.506 203.15 134.518 201.355 132.799 200.651C131.824 199.632 130.348 198.915 129.148 198.177L129.108 197.97C128.666 195.761 130.169 191.064 130.372 188.451C131.578 184.474 132.129 180.356 133.022 176.306C133.324 174.934 133.737 172.29 134.957 171.511Z"/>
	<path fill="#009D52" d="M125.724 108.078C148.268 108.654 170.866 108.608 193.42 108.456C194.79 108.448 196.567 108.196 197.599 109.253C199.801 111.511 200.927 116.363 201.504 119.391C201.784 127.746 201.848 131.835 198.221 139.579C196.581 143.08 194.614 146.219 191.97 149.053C188.965 152.273 185.575 154.165 181.684 156.137C172.237 160.821 159.457 160.869 149.222 158.978C146.473 158.47 142.066 156.995 139.776 156.787C141.537 157.676 143.98 158.57 145.951 158.633C146.801 158.659 147.832 158.691 148.547 159.195C148.53 159.746 148.41 159.841 148.017 160.197C146.269 161.784 144.215 161.885 143.287 164.302C141.154 163.102 137.487 160.283 135.234 159.854C132.94 158.77 130.362 156.2 128.663 154.299C125.687 151.512 123.099 148.488 121.113 144.914C122.299 145.468 122.994 146.84 123.7 147.897L123.871 147.859C125.389 146.224 123.001 144.847 123.367 143.076C123.377 143.028 123.392 142.981 123.404 142.933C118.613 128.906 120.261 121.466 125.724 108.078Z"/>
	<path fill="#009D52" d="M123.404 142.933C124.086 144.33 124.688 145.782 125.428 147.147C126.347 148.843 128.38 151.534 128.831 153.216C128.942 153.628 128.788 153.914 128.663 154.299C125.687 151.512 123.099 148.488 121.113 144.914C122.299 145.468 122.994 146.84 123.7 147.897L123.871 147.859C125.389 146.224 123.001 144.847 123.367 143.076C123.377 143.028 123.392 142.981 123.404 142.933Z"/>
	<path fill="#1E1554" d="M139.628 116.313C142.223 116.179 144.356 116.631 146.479 118.217C148.876 120.008 150.343 122.691 150.721 125.642C151.073 128.387 150.491 130.931 148.782 133.13C146.926 135.52 144.559 136.796 141.598 137.172C139.23 137.133 137.157 137.081 135.143 135.642C132.663 133.87 130.873 130.546 130.419 127.563C130.037 125.054 130.828 122.551 132.319 120.528C134.161 118.029 136.618 116.773 139.628 116.313Z"/>
	<path fill="#1E1554" d="M184.209 116.334C186.194 116.277 188.391 116.874 190.055 117.961C192.633 119.646 194.086 122.415 194.656 125.385C195.196 128.197 194.814 131.066 193.162 133.449C191.346 136.071 188.911 137.2 185.878 137.752C183.367 137.763 181.068 137.491 178.974 135.982C176.567 134.248 175.069 131.328 174.63 128.434C174.204 125.616 174.825 122.711 176.559 120.424C178.507 117.856 181.106 116.731 184.209 116.334Z"/>
</svg>
